<svg width="1067" height="429" viewBox="0 0 1067 429" fill="none" xmlns="http://www.w3.org/2000/svg">
<rect x="3" y="3" width="1031" height="423" rx="16" fill="white"/>
<rect x="3" y="3" width="1031" height="423" rx="16" stroke="url(#paint0_linear_2612_11059)" stroke-width="6"/>
<path d="M54.838 86.4H67.818V157.2H89.176V169H54.838V86.4ZM103.531 86.4H121.113L134.565 169H121.585L119.225 152.598V152.834H104.475L102.115 169H90.0794L103.531 86.4ZM117.691 141.624L111.909 100.796H111.673L106.009 141.624H117.691ZM155.031 170.18C148.738 170.18 143.978 168.41 140.753 164.87C137.528 161.251 135.915 156.099 135.915 149.412V144.692H148.187V150.356C148.187 155.705 150.429 158.38 154.913 158.38C157.116 158.38 158.768 157.751 159.869 156.492C161.049 155.155 161.639 153.031 161.639 150.12C161.639 146.659 160.852 143.63 159.279 141.034C157.706 138.359 154.795 135.173 150.547 131.476C145.198 126.756 141.461 122.508 139.337 118.732C137.213 114.877 136.151 110.551 136.151 105.752C136.151 99.2227 137.803 94.188 141.107 90.648C144.411 87.0293 149.21 85.22 155.503 85.22C161.718 85.22 166.398 87.0293 169.545 90.648C172.77 94.188 174.383 99.3013 174.383 105.988V109.41H162.111V105.162C162.111 102.33 161.56 100.285 160.459 99.026C159.358 97.6887 157.745 97.02 155.621 97.02C151.294 97.02 149.131 99.6553 149.131 104.926C149.131 107.915 149.918 110.708 151.491 113.304C153.143 115.9 156.093 119.047 160.341 122.744C165.769 127.464 169.506 131.751 171.551 135.606C173.596 139.461 174.619 143.984 174.619 149.176C174.619 155.941 172.928 161.133 169.545 164.752C166.241 168.371 161.403 170.18 155.031 170.18ZM198.581 170.18C192.288 170.18 187.489 168.41 184.185 164.87C180.881 161.251 179.229 156.099 179.229 149.412V86.4H192.209V150.356C192.209 153.188 192.76 155.233 193.861 156.492C195.041 157.751 196.693 158.38 198.817 158.38C200.941 158.38 202.554 157.751 203.655 156.492C204.835 155.233 205.425 153.188 205.425 150.356V86.4H217.933V149.412C217.933 156.099 216.281 161.251 212.977 164.87C209.673 168.41 204.875 170.18 198.581 170.18ZM251.504 98.2H237.934V86.4H278.054V98.2H264.484V169H251.504V98.2ZM281.979 86.4H317.379V98.2H294.959V120.03H312.777V131.83H294.959V157.2H317.379V169H281.979V86.4ZM340.776 170.18C334.561 170.18 329.802 168.41 326.498 164.87C323.273 161.33 321.66 156.335 321.66 149.884V105.516C321.66 99.0653 323.273 94.07 326.498 90.53C329.802 86.99 334.561 85.22 340.776 85.22C346.991 85.22 351.711 86.99 354.936 90.53C358.24 94.07 359.892 99.0653 359.892 105.516V114.248H347.62V104.69C347.62 99.5767 345.457 97.02 341.13 97.02C336.803 97.02 334.64 99.5767 334.64 104.69V150.828C334.64 155.863 336.803 158.38 341.13 158.38C345.457 158.38 347.62 155.863 347.62 150.828V138.202H359.892V149.884C359.892 156.335 358.24 161.33 354.936 164.87C351.711 168.41 346.991 170.18 340.776 170.18ZM365.298 86.4H378.278V120.03H392.202V86.4H405.182V169H392.202V131.83H378.278V169H365.298V86.4ZM440.473 126.756L426.195 86.4H439.883L448.615 113.068H448.851L457.819 86.4H470.091L455.813 126.756L470.799 169H457.111L447.671 140.208H447.435L437.759 169H425.487L440.473 126.756Z" fill="black"/>
<path d="M112.69 305.419H223.642V331.501H81.6404V305.419L172.306 198.4H201.286L112.69 305.419ZM201.286 198.4V364H174.376V198.4H201.286ZM256.997 364C252.305 364 248.303 362.413 244.991 359.239C241.817 355.927 240.23 351.925 240.23 347.233C240.23 342.679 241.817 338.815 244.991 335.641C248.303 332.467 252.305 330.88 256.997 330.88C261.551 330.88 265.415 332.467 268.589 335.641C271.763 338.815 273.35 342.679 273.35 347.233C273.35 351.925 271.763 355.927 268.589 359.239C265.415 362.413 261.551 364 256.997 364ZM363.135 366.07C351.543 366.07 340.089 362.758 328.773 356.134C317.595 349.51 308.349 339.781 301.035 326.947C293.721 313.975 290.064 298.657 290.064 280.993C290.064 263.329 293.721 248.149 301.035 235.453C308.349 222.619 317.595 212.89 328.773 206.266C340.089 199.642 351.543 196.33 363.135 196.33C374.727 196.33 386.319 199.642 397.911 206.266C409.503 212.89 419.094 222.619 426.684 235.453C434.412 248.287 438.276 263.467 438.276 280.993C438.276 298.657 434.412 313.906 426.684 326.74C419.094 339.574 409.503 349.372 397.911 356.134C386.319 362.758 374.727 366.07 363.135 366.07ZM363.135 338.953C372.243 338.953 380.454 336.607 387.768 331.915C395.082 327.085 400.809 320.323 404.949 311.629C409.227 302.797 411.366 292.585 411.366 280.993C411.366 269.539 409.227 259.465 404.949 250.771C400.809 242.077 395.082 235.384 387.768 230.692C380.454 225.862 372.243 223.447 363.135 223.447C354.027 223.447 345.954 225.862 338.916 230.692C332.016 235.384 326.634 242.077 322.77 250.771C318.906 259.465 316.974 269.539 316.974 280.993C316.974 292.585 318.906 302.797 322.77 311.629C326.634 320.323 332.016 327.085 338.916 331.915C345.954 336.607 354.027 338.953 363.135 338.953Z" fill="#EEE437"/>
<path d="M518.593 207V133.096H554.7C563.991 133.096 570.959 134.856 575.604 138.375C580.32 141.894 582.678 146.54 582.678 152.311C582.678 156.182 581.728 159.561 579.827 162.447C577.927 165.262 575.323 167.444 572.014 168.992C568.706 170.541 564.906 171.315 560.612 171.315L562.618 166.986C567.264 166.986 571.381 167.761 574.971 169.309C578.56 170.787 581.34 173.004 583.311 175.96C585.352 178.917 586.373 182.541 586.373 186.835C586.373 193.169 583.874 198.132 578.877 201.721C573.88 205.24 566.524 207 556.811 207H518.593ZM535.591 194.12H555.545C559.979 194.12 563.322 193.416 565.574 192.008C567.897 190.53 569.058 188.207 569.058 185.04C569.058 181.943 567.897 179.656 565.574 178.178C563.322 176.629 559.979 175.855 555.545 175.855H534.324V163.397H552.588C556.741 163.397 559.908 162.693 562.09 161.285C564.343 159.807 565.469 157.59 565.469 154.634C565.469 151.748 564.343 149.601 562.09 148.194C559.908 146.716 556.741 145.977 552.588 145.977H535.591V194.12ZM609.774 162.869H645.353V176.172H609.774V162.869ZM611.041 193.275H651.265V207H594.043V133.096H649.893V146.821H611.041V193.275ZM677.244 207V176.805L681.15 187.152L648.633 133.096H666.792L691.708 174.588H681.256L706.277 133.096H723.064L690.547 187.152L694.347 176.805V207H677.244ZM757.641 208.267C751.799 208.267 746.38 207.317 741.383 205.416C736.456 203.516 732.162 200.841 728.502 197.393C724.913 193.944 722.097 189.897 720.056 185.251C718.085 180.606 717.1 175.538 717.1 170.048C717.1 164.558 718.085 159.491 720.056 154.845C722.097 150.2 724.948 146.153 728.608 142.704C732.268 139.255 736.561 136.58 741.488 134.68C746.415 132.78 751.764 131.829 757.536 131.829C763.378 131.829 768.727 132.78 773.583 134.68C778.51 136.58 782.769 139.255 786.358 142.704C790.018 146.153 792.869 150.2 794.91 154.845C796.951 159.42 797.972 164.488 797.972 170.048C797.972 175.538 796.951 180.641 794.91 185.357C792.869 190.002 790.018 194.049 786.358 197.498C782.769 200.877 778.51 203.516 773.583 205.416C768.727 207.317 763.413 208.267 757.641 208.267ZM757.536 193.697C760.844 193.697 763.87 193.134 766.615 192.008C769.431 190.882 771.894 189.263 774.006 187.152C776.117 185.04 777.736 182.541 778.862 179.656C780.059 176.77 780.657 173.567 780.657 170.048C780.657 166.529 780.059 163.326 778.862 160.441C777.736 157.555 776.117 155.056 774.006 152.945C771.965 150.833 769.536 149.214 766.721 148.088C763.906 146.962 760.844 146.399 757.536 146.399C754.228 146.399 751.166 146.962 748.351 148.088C745.606 149.214 743.177 150.833 741.066 152.945C738.954 155.056 737.3 157.555 736.104 160.441C734.978 163.326 734.414 166.529 734.414 170.048C734.414 173.497 734.978 176.7 736.104 179.656C737.3 182.541 738.919 185.04 740.96 187.152C743.072 189.263 745.535 190.882 748.351 192.008C751.166 193.134 754.228 193.697 757.536 193.697ZM805.547 207V133.096H819.694L863.297 186.307H856.435V133.096H873.327V207H859.285L815.576 153.789H822.439V207H805.547ZM885.533 207V133.096H919.107C927.131 133.096 934.204 134.645 940.328 137.742C946.451 140.768 951.237 145.027 954.686 150.516C958.135 156.006 959.859 162.517 959.859 170.048C959.859 177.509 958.135 184.019 954.686 189.58C951.237 195.07 946.451 199.363 940.328 202.46C934.204 205.487 927.131 207 919.107 207H885.533ZM902.637 192.958H918.262C923.189 192.958 927.447 192.043 931.037 190.213C934.697 188.313 937.512 185.638 939.483 182.189C941.524 178.741 942.545 174.694 942.545 170.048C942.545 165.332 941.524 161.285 939.483 157.907C937.512 154.458 934.697 151.819 931.037 149.989C927.447 148.088 923.189 147.138 918.262 147.138H902.637V192.958ZM567.591 348.96C558.772 348.96 550.552 347.544 542.931 344.714C535.418 341.774 528.886 337.637 523.333 332.302C517.78 326.967 513.425 320.706 510.268 313.521C507.219 306.335 505.695 298.441 505.695 289.84C505.695 281.239 507.219 273.345 510.268 266.16C513.425 258.974 517.78 252.713 523.333 247.379C528.995 242.044 535.582 237.961 543.094 235.13C550.606 232.19 558.827 230.721 567.754 230.721C577.662 230.721 586.59 232.463 594.538 235.947C602.595 239.322 609.345 244.33 614.789 250.971L597.804 266.65C593.885 262.186 589.53 258.865 584.739 256.687C579.948 254.401 574.722 253.258 569.061 253.258C563.726 253.258 558.827 254.129 554.363 255.871C549.899 257.613 546.034 260.117 542.767 263.383C539.501 266.65 536.942 270.515 535.092 274.979C533.35 279.442 532.479 284.396 532.479 289.84C532.479 295.284 533.35 300.238 535.092 304.702C536.942 309.166 539.501 313.031 542.767 316.297C546.034 319.563 549.899 322.067 554.363 323.809C558.827 325.551 563.726 326.422 569.061 326.422C574.722 326.422 579.948 325.334 584.739 323.156C589.53 320.87 593.885 317.44 597.804 312.867L614.789 328.546C609.345 335.187 602.595 340.25 594.538 343.734C586.59 347.218 577.608 348.96 567.591 348.96ZM677.624 348.96C668.587 348.96 660.204 347.49 652.473 344.55C644.852 341.611 638.211 337.473 632.549 332.138C626.996 326.804 622.641 320.543 619.484 313.357C616.435 306.172 614.911 298.332 614.911 289.84C614.911 281.348 616.435 273.509 619.484 266.323C622.641 259.137 627.051 252.877 632.712 247.542C638.374 242.207 645.015 238.07 652.637 235.13C660.258 232.19 668.533 230.721 677.46 230.721C686.497 230.721 694.772 232.19 702.284 235.13C709.905 238.07 716.492 242.207 722.045 247.542C727.707 252.877 732.116 259.137 735.274 266.323C738.431 273.4 740.01 281.239 740.01 289.84C740.01 298.332 738.431 306.226 735.274 313.521C732.116 320.706 727.707 326.967 722.045 332.302C716.492 337.528 709.905 341.611 702.284 344.55C694.772 347.49 686.552 348.96 677.624 348.96ZM677.46 326.422C682.578 326.422 687.259 325.551 691.505 323.809C695.86 322.067 699.671 319.563 702.937 316.297C706.204 313.031 708.708 309.166 710.45 304.702C712.301 300.238 713.226 295.284 713.226 289.84C713.226 284.396 712.301 279.442 710.45 274.979C708.708 270.515 706.204 266.65 702.937 263.383C699.78 260.117 696.024 257.613 691.669 255.871C687.314 254.129 682.578 253.258 677.46 253.258C672.343 253.258 667.607 254.129 663.252 255.871C659.006 257.613 655.25 260.117 651.983 263.383C648.717 266.65 646.159 270.515 644.308 274.979C642.566 279.442 641.695 284.396 641.695 289.84C641.695 295.175 642.566 300.129 644.308 304.702C646.159 309.166 648.663 313.031 651.82 316.297C655.086 319.563 658.897 322.067 663.252 323.809C667.607 325.551 672.343 326.422 677.46 326.422ZM751.727 347V232.68H803.661C816.073 232.68 827.015 235.076 836.487 239.866C845.96 244.548 853.363 251.135 858.698 259.627C864.033 268.119 866.7 278.19 866.7 289.84C866.7 301.381 864.033 311.452 858.698 320.053C853.363 328.546 845.96 335.187 836.487 339.978C827.015 344.659 816.073 347 803.661 347H751.727ZM778.184 325.279H802.355C809.976 325.279 816.563 323.864 822.116 321.033C827.777 318.093 832.132 313.956 835.181 308.621C838.338 303.286 839.917 297.026 839.917 289.84C839.917 282.545 838.338 276.285 835.181 271.059C832.132 265.724 827.777 261.641 822.116 258.811C816.563 255.871 809.976 254.401 802.355 254.401H778.184V325.279ZM902.821 278.735H957.858V299.312H902.821V278.735ZM904.781 325.769H967.003V347H878.487V232.68H964.88V253.911H904.781V325.769Z" fill="black"/>
<rect x="525" y="86" width="434" height="17" fill="#40E02B"/>
<g style="mix-blend-mode:screen" filter="url(#filter0_fg_2612_11059)">
<path d="M974 245.785L479 180L613.384 238.15C728.452 248.722 959.945 270.455 965.37 272.804C970.794 275.154 973.384 255.771 974 245.785Z" fill="#76A501"/>
</g>
<g style="mix-blend-mode:screen" filter="url(#filter1_fg_2612_11059)">
<path d="M1034 153.785L539 88L673.384 146.15C788.452 156.722 1019.95 178.455 1025.37 180.804C1030.79 183.154 1033.38 163.771 1034 153.785Z" fill="#90F811"/>
</g>
<g style="mix-blend-mode:screen" opacity="0.6" filter="url(#filter2_df_2612_11059)">
<path d="M621.941 121.177C619.817 120.786 618.635 120.554 618.5 120.5L621.941 121.177C651.296 126.588 860.481 162.505 968.5 181L964.5 184.5L961.5 188L621.941 121.177Z" fill="#97FF1A"/>
</g>
<g style="mix-blend-mode:screen" opacity="0.6" filter="url(#filter3_df_2612_11059)">
<path d="M626.105 115.587C623.966 115.294 622.774 115.116 622.637 115.069L626.105 115.587C655.678 119.645 866.291 145.921 975.045 159.439L971.21 163.119L968.374 166.753L626.105 115.587Z" fill="#97FF1A"/>
</g>
<path d="M553.239 376.8H542.439V381.888L551.679 381.864V384.888H542.439V392.976H539.439V373.776H542.439V373.8L553.239 373.776V376.8ZM558.154 373.8V384.264C558.154 385.704 558.306 386.84 558.61 387.672C558.914 388.504 559.386 389.104 560.026 389.472C560.682 389.824 561.546 390 562.618 390C563.658 390 564.474 389.824 565.066 389.472C565.674 389.104 566.114 388.512 566.386 387.696C566.674 386.864 566.818 385.72 566.818 384.264V373.8H569.818V384.264C569.818 386.216 569.602 387.824 569.17 389.088C568.754 390.352 568.018 391.32 566.962 391.992C565.922 392.664 564.474 393 562.618 393C560.682 393 559.17 392.672 558.082 392.016C556.994 391.344 556.234 390.376 555.802 389.112C555.37 387.848 555.154 386.232 555.154 384.264V373.8H558.154ZM586.785 373.8V376.8H580.761V393H577.761V376.8H571.737V373.824H577.761V373.8H586.785ZM591.694 373.8V384.264C591.694 385.704 591.846 386.84 592.15 387.672C592.454 388.504 592.926 389.104 593.566 389.472C594.222 389.824 595.086 390 596.158 390C597.198 390 598.014 389.824 598.606 389.472C599.214 389.104 599.654 388.512 599.926 387.696C600.214 386.864 600.358 385.72 600.358 384.264V373.8H603.358V384.264C603.358 386.216 603.142 387.824 602.71 389.088C602.294 390.352 601.558 391.32 600.502 391.992C599.462 392.664 598.014 393 596.158 393C594.222 393 592.71 392.672 591.622 392.016C590.534 391.344 589.774 390.376 589.342 389.112C588.91 387.848 588.694 386.232 588.694 384.264V373.8H591.694ZM622.347 380.04C622.347 381.288 622.019 382.32 621.363 383.136C620.707 383.952 619.803 384.584 618.651 385.032L622.083 393H618.699L615.579 385.776C615.003 385.84 614.355 385.872 613.635 385.872H609.051V393H606.003V373.8H613.635C616.179 373.8 618.267 374.248 619.899 375.144C621.531 376.024 622.347 377.656 622.347 380.04ZM613.635 382.944C614.963 382.944 616.011 382.84 616.779 382.632C617.547 382.424 618.091 382.104 618.411 381.672C618.747 381.224 618.915 380.648 618.915 379.944C618.915 378.904 618.515 378.128 617.715 377.616C616.915 377.104 615.555 376.848 613.635 376.848H609.051V382.944H613.635ZM638.8 376.824H628V381.912L637.24 381.888V384.912H628V390L638.8 389.976V393H625V373.824H638.8V376.824ZM650.939 387H640.715V384.048H650.939V387ZM655.916 393H652.868V373.8H660.5C662.964 373.8 665.028 374.248 666.692 375.144C668.372 376.04 669.212 377.672 669.212 380.04C669.212 382.136 668.356 383.632 666.644 384.528C664.932 385.424 662.884 385.872 660.5 385.872H655.916V393ZM660.5 382.944C662.26 382.944 663.58 382.728 664.46 382.296C665.34 381.848 665.78 381.064 665.78 379.944C665.78 378.84 665.332 378.048 664.436 377.568C663.54 377.088 662.228 376.848 660.5 376.848H655.916V382.944H660.5ZM687.482 380.04C687.482 381.288 687.154 382.32 686.498 383.136C685.842 383.952 684.938 384.584 683.786 385.032L687.218 393H683.834L680.714 385.776C680.138 385.84 679.49 385.872 678.77 385.872H674.186V393H671.138V373.8H678.77C681.314 373.8 683.402 374.248 685.034 375.144C686.666 376.024 687.482 377.656 687.482 380.04ZM678.77 382.944C680.098 382.944 681.146 382.84 681.914 382.632C682.682 382.424 683.226 382.104 683.546 381.672C683.882 381.224 684.05 380.648 684.05 379.944C684.05 378.904 683.65 378.128 682.85 377.616C682.05 377.104 680.69 376.848 678.77 376.848H674.186V382.944H678.77ZM689.408 383.304C689.408 381.448 689.752 379.808 690.44 378.384C691.128 376.944 692.136 375.824 693.464 375.024C694.808 374.208 696.4 373.8 698.24 373.8C700.08 373.8 701.656 374.208 702.968 375.024C704.296 375.824 705.304 376.944 705.992 378.384C706.68 379.808 707.024 381.448 707.024 383.304C707.024 385.176 706.68 386.848 705.992 388.32C705.304 389.776 704.296 390.92 702.968 391.752C701.656 392.584 700.08 393 698.24 393C696.4 393 694.816 392.584 693.488 391.752C692.16 390.92 691.144 389.776 690.44 388.32C689.752 386.848 689.408 385.176 689.408 383.304ZM692.504 383.328C692.504 385.328 693.008 386.928 694.016 388.128C695.024 389.312 696.432 389.904 698.24 389.904C700.032 389.888 701.424 389.288 702.416 388.104C703.424 386.904 703.928 385.312 703.928 383.328C703.928 381.376 703.424 379.816 702.416 378.648C701.424 377.48 700.032 376.896 698.24 376.896C696.432 376.896 695.024 377.48 694.016 378.648C693.008 379.816 692.504 381.376 692.504 383.328ZM708.943 383.304C708.943 381.448 709.287 379.808 709.975 378.384C710.663 376.944 711.671 375.824 712.999 375.024C714.343 374.208 715.935 373.8 717.775 373.8C719.615 373.8 721.191 374.208 722.503 375.024C723.831 375.824 724.839 376.944 725.527 378.384C726.215 379.808 726.559 381.448 726.559 383.304C726.559 385.176 726.215 386.848 725.527 388.32C724.839 389.776 723.831 390.92 722.503 391.752C721.191 392.584 719.615 393 717.775 393C715.935 393 714.351 392.584 713.023 391.752C711.695 390.92 710.679 389.776 709.975 388.32C709.287 386.848 708.943 385.176 708.943 383.304ZM712.039 383.328C712.039 385.328 712.543 386.928 713.551 388.128C714.559 389.312 715.967 389.904 717.775 389.904C719.567 389.888 720.959 389.288 721.951 388.104C722.959 386.904 723.463 385.312 723.463 383.328C723.463 381.376 722.959 379.816 721.951 378.648C720.959 377.48 719.567 376.896 717.775 376.896C715.967 376.896 714.559 377.48 713.551 378.648C712.543 379.816 712.039 381.376 712.039 383.328ZM742.279 376.8H731.479V381.888L740.719 381.864V384.888H731.479V392.976H728.479V373.776H731.479V373.8L742.279 373.776V376.8ZM762.77 373.8H766.25L759.53 386.28V392.952H756.434V386.28L749.714 373.8H753.05L757.97 383.4L762.77 373.8ZM766.977 383.304C766.977 381.448 767.321 379.808 768.009 378.384C768.697 376.944 769.705 375.824 771.033 375.024C772.377 374.208 773.969 373.8 775.809 373.8C777.649 373.8 779.225 374.208 780.537 375.024C781.865 375.824 782.873 376.944 783.561 378.384C784.249 379.808 784.593 381.448 784.593 383.304C784.593 385.176 784.249 386.848 783.561 388.32C782.873 389.776 781.865 390.92 780.537 391.752C779.225 392.584 777.649 393 775.809 393C773.969 393 772.385 392.584 771.057 391.752C769.729 390.92 768.713 389.776 768.009 388.32C767.321 386.848 766.977 385.176 766.977 383.304ZM770.073 383.328C770.073 385.328 770.577 386.928 771.585 388.128C772.593 389.312 774.001 389.904 775.809 389.904C777.601 389.888 778.993 389.288 779.985 388.104C780.993 386.904 781.497 385.312 781.497 383.328C781.497 381.376 780.993 379.816 779.985 378.648C778.993 377.48 777.601 376.896 775.809 376.896C774.001 376.896 772.593 377.48 771.585 378.648C770.577 379.816 770.073 381.376 770.073 383.328ZM789.512 373.8V384.264C789.512 385.704 789.664 386.84 789.968 387.672C790.272 388.504 790.744 389.104 791.384 389.472C792.04 389.824 792.904 390 793.976 390C795.016 390 795.832 389.824 796.424 389.472C797.032 389.104 797.472 388.512 797.744 387.696C798.032 386.864 798.176 385.72 798.176 384.264V373.8H801.176V384.264C801.176 386.216 800.96 387.824 800.528 389.088C800.112 390.352 799.376 391.32 798.32 391.992C797.28 392.664 795.832 393 793.976 393C792.04 393 790.528 392.672 789.44 392.016C788.352 391.344 787.592 390.376 787.16 389.112C786.728 387.848 786.512 386.232 786.512 384.264V373.8H789.512ZM820.165 380.04C820.165 381.288 819.837 382.32 819.181 383.136C818.525 383.952 817.621 384.584 816.469 385.032L819.901 393H816.517L813.397 385.776C812.821 385.84 812.173 385.872 811.453 385.872H806.869V393H803.821V373.8H811.453C813.997 373.8 816.085 374.248 817.717 375.144C819.349 376.024 820.165 377.656 820.165 380.04ZM811.453 382.944C812.781 382.944 813.829 382.84 814.597 382.632C815.365 382.424 815.909 382.104 816.229 381.672C816.565 381.224 816.733 380.648 816.733 379.944C816.733 378.904 816.333 378.128 815.533 377.616C814.733 377.104 813.373 376.848 811.453 376.848H806.869V382.944H811.453ZM844.387 387.984C843.635 389.616 842.563 390.864 841.171 391.728C839.795 392.576 838.147 393 836.227 393C834.419 393 832.867 392.584 831.571 391.752C830.275 390.92 829.291 389.776 828.619 388.32C827.947 386.848 827.611 385.176 827.611 383.304C827.611 381.448 827.947 379.808 828.619 378.384C829.291 376.944 830.275 375.824 831.571 375.024C832.867 374.208 834.419 373.8 836.227 373.8C838.195 373.8 839.867 374.248 841.243 375.144C842.635 376.024 843.731 377.392 844.531 379.248L841.843 381C841.299 379.48 840.579 378.416 839.683 377.808C838.787 377.2 837.635 376.896 836.227 376.896C835.187 376.896 834.243 377.128 833.395 377.592C832.563 378.056 831.899 378.768 831.403 379.728C830.923 380.672 830.683 381.864 830.683 383.304C830.683 385.544 831.211 387.208 832.267 388.296C833.339 389.368 834.715 389.904 836.395 389.904C837.707 389.904 838.787 389.616 839.635 389.04C840.483 388.464 841.155 387.528 841.651 386.232L844.387 387.984ZM861.832 393L859.84 388.392H850.552L848.56 393H845.248L853.504 373.8H856.84L865.144 393H861.832ZM851.872 385.32L858.496 385.296L855.184 377.616L851.872 385.32ZM883.401 380.04C883.401 381.288 883.073 382.32 882.417 383.136C881.761 383.952 880.857 384.584 879.705 385.032L883.137 393H879.753L876.633 385.776C876.057 385.84 875.409 385.872 874.689 385.872H870.105V393H867.057V373.8H874.689C877.233 373.8 879.321 374.248 880.953 375.144C882.585 376.024 883.401 377.656 883.401 380.04ZM874.689 382.944C876.017 382.944 877.065 382.84 877.833 382.632C878.601 382.424 879.145 382.104 879.465 381.672C879.801 381.224 879.969 380.648 879.969 379.944C879.969 378.904 879.569 378.128 878.769 377.616C877.969 377.104 876.609 376.848 874.689 376.848H870.105V382.944H874.689ZM899.854 376.824H889.054V381.912L898.294 381.888V384.912H889.054V390L899.854 389.976V393H886.054V373.824H899.854V376.824ZM916.296 376.824H905.496V381.912L914.736 381.888V384.912H905.496V390L916.296 389.976V393H902.496V373.824H916.296V376.824ZM934.555 380.04C934.555 381.288 934.227 382.32 933.571 383.136C932.915 383.952 932.011 384.584 930.859 385.032L934.291 393H930.907L927.787 385.776C927.211 385.84 926.563 385.872 925.843 385.872H921.259V393H918.211V373.8H925.843C928.387 373.8 930.475 374.248 932.107 375.144C933.739 376.024 934.555 377.656 934.555 380.04ZM925.843 382.944C927.171 382.944 928.219 382.84 928.987 382.632C929.755 382.424 930.299 382.104 930.619 381.672C930.955 381.224 931.123 380.648 931.123 379.944C931.123 378.904 930.723 378.128 929.923 377.616C929.123 377.104 927.763 376.848 925.843 376.848H921.259V382.944H925.843Z" fill="#28B316"/>
<defs>
<filter id="filter0_fg_2612_11059" x="446.7" y="147.7" width="559.6" height="157.6" filterUnits="userSpaceOnUse" color-interpolation-filters="sRGB">
<feFlood flood-opacity="0" result="BackgroundImageFix"/>
<feBlend mode="normal" in="SourceGraphic" in2="BackgroundImageFix" result="shape"/>
<feGaussianBlur stdDeviation="16.15" result="effect1_foregroundBlur_2612_11059"/>
<feTurbulence type="fractalNoise" baseFrequency="2 2" numOctaves="3" seed="207" />
<feDisplacementMap in="effect1_foregroundBlur_2612_11059" scale="62.200000762939453" xChannelSelector="R" yChannelSelector="G" result="displacedImage" width="100%" height="100%" />
<feMerge result="effect2_texture_2612_11059">
<feMergeNode in="displacedImage"/>
</feMerge>
</filter>
<filter id="filter1_fg_2612_11059" x="506.7" y="55.7" width="559.6" height="157.6" filterUnits="userSpaceOnUse" color-interpolation-filters="sRGB">
<feFlood flood-opacity="0" result="BackgroundImageFix"/>
<feBlend mode="normal" in="SourceGraphic" in2="BackgroundImageFix" result="shape"/>
<feGaussianBlur stdDeviation="16.15" result="effect1_foregroundBlur_2612_11059"/>
<feTurbulence type="fractalNoise" baseFrequency="2 2" numOctaves="3" seed="207" />
<feDisplacementMap in="effect1_foregroundBlur_2612_11059" scale="62.200000762939453" xChannelSelector="R" yChannelSelector="G" result="displacedImage" width="100%" height="100%" />
<feMerge result="effect2_texture_2612_11059">
<feMergeNode in="displacedImage"/>
</feMerge>
</filter>
<filter id="filter2_df_2612_11059" x="609.1" y="111.1" width="368.8" height="88" filterUnits="userSpaceOnUse" color-interpolation-filters="sRGB">
<feFlood flood-opacity="0" result="BackgroundImageFix"/>
<feColorMatrix in="SourceAlpha" type="matrix" values="0 0 0 0 0 0 0 0 0 0 0 0 0 0 0 0 0 0 127 0" result="hardAlpha"/>
<feOffset dy="4"/>
<feGaussianBlur stdDeviation="3.55"/>
<feComposite in2="hardAlpha" operator="out"/>
<feColorMatrix type="matrix" values="0 0 0 0 0.784481 0 0 0 0 1 0 0 0 0 0.509615 0 0 0 1 0"/>
<feBlend mode="normal" in2="BackgroundImageFix" result="effect1_dropShadow_2612_11059"/>
<feBlend mode="normal" in="SourceGraphic" in2="effect1_dropShadow_2612_11059" result="shape"/>
<feGaussianBlur stdDeviation="4.7" result="effect2_foregroundBlur_2612_11059"/>
</filter>
<filter id="filter3_df_2612_11059" x="615.537" y="109.869" width="366.606" height="67.9841" filterUnits="userSpaceOnUse" color-interpolation-filters="sRGB">
<feFlood flood-opacity="0" result="BackgroundImageFix"/>
<feColorMatrix in="SourceAlpha" type="matrix" values="0 0 0 0 0 0 0 0 0 0 0 0 0 0 0 0 0 0 127 0" result="hardAlpha"/>
<feOffset dy="4"/>
<feGaussianBlur stdDeviation="3.55"/>
<feComposite in2="hardAlpha" operator="out"/>
<feColorMatrix type="matrix" values="0 0 0 0 0.784481 0 0 0 0 1 0 0 0 0 0.509615 0 0 0 1 0"/>
<feBlend mode="normal" in2="BackgroundImageFix" result="effect1_dropShadow_2612_11059"/>
<feBlend mode="normal" in="SourceGraphic" in2="effect1_dropShadow_2612_11059" result="shape"/>
<feGaussianBlur stdDeviation="2.6" result="effect2_foregroundBlur_2612_11059"/>
</filter>
<linearGradient id="paint0_linear_2612_11059" x1="185.5" y1="-11.2584" x2="819.919" y2="640.588" gradientUnits="userSpaceOnUse">
<stop stop-color="#28B417"/>
<stop offset="0.5" stop-color="#EEE437"/>
<stop offset="1" stop-color="#28B417"/>
</linearGradient>
</defs>
</svg>
